<svg xmlns="http://www.w3.org/2000/svg" width="860" height="180" viewBox="0 0 860 180"><defs><linearGradient id="g" x1="0" y1="0" x2="1" y2="1"><stop stop-color="#2E9E6B"/><stop offset=".55" stop-color="#1E6FB7"/><stop offset="1" stop-color="#0A2E5B"/></linearGradient></defs><rect width="860" height="180" fill="white"/><g transform="translate(20 16)"><circle cx="70" cy="72" r="55" fill="none" stroke="url(#g)" stroke-width="10"/><path d="M48 28 Q75 43 101 26 M54 118 Q75 100 93 121 M58 45 C95 66 48 86 86 108 M86 45 C49 66 96 87 60 108" fill="none" stroke="url(#g)" stroke-width="8" stroke-linecap="round"/><circle cx="83" cy="38" r="9" fill="#0A2E5B"/><path d="M74 50 Q91 60 104 46" fill="none" stroke="#0A2E5B" stroke-width="8" stroke-linecap="round"/></g><text x="150" y="84" font-family="Georgia,serif" font-size="72" font-weight="700" fill="#0A2E5B">SEHBS</text><line x1="400" y1="38" x2="400" y2="105" stroke="#99a9b8"/><text x="420" y="58" font-family="Arial,sans-serif" font-size="21" fill="#17314c">Sport, Exercise, Health &amp;</text><text x="420" y="86" font-family="Arial,sans-serif" font-size="21" fill="#17314c">Biomedical Sciences</text><text x="150" y="125" font-family="Arial,sans-serif" font-size="17" letter-spacing="4" fill="#1E6FB7">WEEKLY RESEARCH &amp; SCIENCE NEWS</text></svg>